<svg xmlns="http://www.w3.org/2000/svg" width="511pt" height="511pt" viewBox="1 -36 512 511" id="schedule-management"><path fill="#00efd1" d="M393.516 124.242v44.785l-.106.633c-5.887-.84-11.777-1.156-17.875-1.156-74.012 0-134.043 60.031-134.043 134.043a133.81 133.81 0 0 0 17.555 66.34l-.524.316H44.79C20.082 369.203 0 349.121 0 324.418V124.242Zm0 0"></path><path fill="#fedb41" d="M218.676 205.824c0 12.078-9.79 21.871-21.867 21.871-12.079 0-21.868-9.793-21.868-21.87 0-12.075 9.79-21.868 21.868-21.868s21.867 9.793 21.867 21.867zm0 82.848c0 12.074-9.79 21.867-21.867 21.867-12.079 0-21.868-9.793-21.868-21.867 0-12.078 9.79-21.867 21.868-21.867s21.867 9.789 21.867 21.867zm-100.82-82.848c0 12.078-9.793 21.871-21.868 21.871-12.078 0-21.867-9.793-21.867-21.87 0-12.075 9.79-21.868 21.867-21.868 12.075 0 21.867 9.793 21.867 21.867zm0 82.848c0 12.074-9.793 21.867-21.868 21.867-12.078 0-21.867-9.793-21.867-21.867 0-12.078 9.79-21.867 21.867-21.867 12.075 0 21.867 9.789 21.867 21.867zm275.867-121.324C460.484 176.28 512 233.37 512 302.547c0 75.383-61.082 136.465-136.465 136.465-50.777 0-95.144-27.754-118.59-68.969-11.355-19.871-17.87-43-17.87-67.496 0-75.379 61.081-136.461 136.46-136.461 6.098.105 12.195.523 18.188 1.262zm0 0"></path><path fill="#00acea" d="M89.258 44.027h259.469c24.707 0 44.789 20.078 44.789 44.785v45.946H.106V88.812c0-24.707 20.082-44.785 44.785-44.785h44.367Zm0 0"></path><path fill="#fedb41" d="M90.414 87.55c-5.781 0-10.512-4.73-10.512-10.515V11.012C79.902 5.23 84.632.5 90.414.5c5.781 0 10.516 4.73 10.516 10.512v65.922c0 5.886-4.735 10.617-10.516 10.617zm219.203 0c-5.781 0-10.512-4.73-10.512-10.515V11.012C299.105 5.23 303.835.5 309.617.5c5.781 0 10.516 4.73 10.516 10.512v65.922c0 5.886-4.735 10.617-10.516 10.617zm0 0"></path><path fill="#00acea" d="M451.023 287.094H432.52c-4.313-11.985-15.77-20.5-29.227-20.5s-24.918 8.62-29.227 20.5h-71.703c-5.781 0-10.511 4.73-10.511 10.515 0 5.782 4.73 10.512 10.511 10.512h71.703c4.309 11.984 15.77 20.5 29.227 20.5s24.914-8.621 29.227-20.5h18.503c5.782 0 10.512-4.73 10.512-10.512 0-5.785-4.73-10.515-10.512-10.515Zm-47.73 20.5c-5.574 0-9.988-4.52-9.988-9.989 0-5.464 4.52-9.988 9.988-9.988 5.465 0 9.988 4.524 9.988 9.988 0 5.47-4.418 9.989-9.988 9.989Zm0 0"></path><path fill="#00acea" d="M451.023 340.71H379.32c-4.308-12.612-15.77-20.5-29.226-20.5-13.457 0-24.914 7.888-29.227 20.5h-18.504c-5.781 0-10.511 4.731-10.511 10.517 0 5.78 4.73 10.511 10.511 10.511h18.504c4.313 11.567 15.77 20.5 29.227 20.5s24.918-8.933 29.226-20.5h71.703c5.782 0 10.512-4.73 10.512-10.511 0-5.786-4.73-10.516-10.512-10.516zm-100.93 20.4c-5.57 0-9.988-4.524-9.988-9.989 0-5.469 4.524-9.988 9.989-9.988 5.469 0 9.988 4.52 9.988 9.988 0 5.465-4.52 9.988-9.988 9.988zm-47.73-104.505h18.504c4.313 11.567 15.77 20.5 29.227 20.5s24.918-8.933 29.226-20.5h71.703c5.782 0 10.512-4.73 10.512-10.515 0-5.781-4.73-10.512-10.512-10.512H379.32c-4.308-11.566-15.77-20.5-29.226-20.5-13.457 0-24.918 8.934-29.227 20.5h-18.504c-5.781 0-10.511 4.73-10.511 10.512 0 5.785 4.73 10.515 10.511 10.515zM350.093 236c5.575 0 9.989 4.52 9.989 9.988 0 5.465-4.52 9.989-9.988 9.989-5.465 0-9.989-4.524-9.989-9.989-.105-5.468 4.418-9.988 9.989-9.988zm0 0"></path></svg>